<mxfile host="app.diagrams.net" agent="Mozilla/5.0 (Windows NT 10.0; Win64; x64) AppleWebKit/537.36 (KHTML, like Gecko) Chrome/128.0.0.0 Safari/537.36" version="24.7.8">
  <diagram name="Page-1" id="PwyoF7ZDvkX6gVTJ02AX">
    <mxGraphModel dx="2284" dy="1838" grid="1" gridSize="10" guides="1" tooltips="1" connect="1" arrows="1" fold="1" page="1" pageScale="1" pageWidth="850" pageHeight="1100" math="0" shadow="0">
      <root>
        <mxCell id="0" />
        <mxCell id="1" parent="0" />
        <mxCell id="G-_GEDHwMI-fsUIYHCHh-8" value="VULTR" style="rounded=1;whiteSpace=wrap;html=1;align=left;verticalAlign=top;spacingLeft=25;spacingBottom=13;" vertex="1" parent="1">
          <mxGeometry x="20" y="-10" width="750" height="780" as="geometry" />
        </mxCell>
        <mxCell id="G-_GEDHwMI-fsUIYHCHh-9" value="VPC" style="sketch=0;outlineConnect=0;gradientColor=none;html=1;whiteSpace=wrap;fontSize=12;fontStyle=0;shape=mxgraph.aws4.group;grIcon=mxgraph.aws4.group_vpc;strokeColor=#879196;fillColor=none;verticalAlign=top;align=left;spacingLeft=30;fontColor=#879196;dashed=1;movable=1;resizable=1;rotatable=1;deletable=1;editable=1;locked=0;connectable=1;" vertex="1" parent="1">
          <mxGeometry x="20" y="130" width="680" height="480" as="geometry" />
        </mxCell>
        <mxCell id="G-_GEDHwMI-fsUIYHCHh-2" value="&lt;b&gt;&lt;font style=&quot;font-size: 16px;&quot;&gt;Elastic and kibana&lt;/font&gt;&lt;/b&gt;" style="outlineConnect=0;dashed=0;verticalLabelPosition=bottom;verticalAlign=top;align=center;html=1;shape=mxgraph.aws3.traditional_server;fillColor=#7D7C7C;gradientColor=none;" vertex="1" parent="1">
          <mxGeometry x="310" y="170" width="46.5" height="63" as="geometry" />
        </mxCell>
        <mxCell id="G-_GEDHwMI-fsUIYHCHh-3" value="C2 Server" style="outlineConnect=0;dashed=0;verticalLabelPosition=bottom;verticalAlign=top;align=center;html=1;shape=mxgraph.aws3.traditional_server;fillColor=#CF08A7;gradientColor=none;" vertex="1" parent="1">
          <mxGeometry x="790" y="-73" width="46.5" height="63" as="geometry" />
        </mxCell>
        <mxCell id="G-_GEDHwMI-fsUIYHCHh-14" style="edgeStyle=orthogonalEdgeStyle;rounded=0;orthogonalLoop=1;jettySize=auto;html=1;endArrow=classic;endFill=1;startArrow=classic;startFill=1;dashed=1;fillColor=#fff2cc;strokeColor=#d6b656;" edge="1" parent="1" source="G-_GEDHwMI-fsUIYHCHh-4" target="G-_GEDHwMI-fsUIYHCHh-2">
          <mxGeometry relative="1" as="geometry" />
        </mxCell>
        <mxCell id="G-_GEDHwMI-fsUIYHCHh-15" value="Alert/Tickets" style="edgeLabel;html=1;align=center;verticalAlign=middle;resizable=0;points=[];" vertex="1" connectable="0" parent="G-_GEDHwMI-fsUIYHCHh-14">
          <mxGeometry x="-0.1321" y="-3" relative="1" as="geometry">
            <mxPoint as="offset" />
          </mxGeometry>
        </mxCell>
        <mxCell id="G-_GEDHwMI-fsUIYHCHh-4" value="OS ticket server" style="outlineConnect=0;dashed=0;verticalLabelPosition=bottom;verticalAlign=top;align=center;html=1;shape=mxgraph.aws3.traditional_server;fillColor=#7D7C7C;gradientColor=none;" vertex="1" parent="1">
          <mxGeometry x="560" y="170" width="46.5" height="63" as="geometry" />
        </mxCell>
        <mxCell id="G-_GEDHwMI-fsUIYHCHh-13" style="rounded=0;orthogonalLoop=1;jettySize=auto;html=1;startArrow=classic;startFill=1;dashed=1;" edge="1" parent="1" source="G-_GEDHwMI-fsUIYHCHh-5" target="G-_GEDHwMI-fsUIYHCHh-2">
          <mxGeometry relative="1" as="geometry" />
        </mxCell>
        <mxCell id="G-_GEDHwMI-fsUIYHCHh-16" value="Manage Agents" style="edgeLabel;html=1;align=center;verticalAlign=middle;resizable=0;points=[];" vertex="1" connectable="0" parent="G-_GEDHwMI-fsUIYHCHh-13">
          <mxGeometry x="-0.4446" y="3" relative="1" as="geometry">
            <mxPoint as="offset" />
          </mxGeometry>
        </mxCell>
        <mxCell id="G-_GEDHwMI-fsUIYHCHh-5" value="Fleet Server" style="outlineConnect=0;dashed=0;verticalLabelPosition=bottom;verticalAlign=top;align=center;html=1;shape=mxgraph.aws3.traditional_server;fillColor=#7D7C7C;gradientColor=none;" vertex="1" parent="1">
          <mxGeometry x="310" y="460" width="46.5" height="63" as="geometry" />
        </mxCell>
        <mxCell id="G-_GEDHwMI-fsUIYHCHh-11" value="Managed" style="edgeStyle=orthogonalEdgeStyle;rounded=0;orthogonalLoop=1;jettySize=auto;html=1;" edge="1" parent="1" source="G-_GEDHwMI-fsUIYHCHh-6" target="G-_GEDHwMI-fsUIYHCHh-5">
          <mxGeometry relative="1" as="geometry">
            <Array as="points">
              <mxPoint x="280" y="490" />
              <mxPoint x="280" y="490" />
            </Array>
          </mxGeometry>
        </mxCell>
        <mxCell id="G-_GEDHwMI-fsUIYHCHh-17" style="rounded=0;orthogonalLoop=1;jettySize=auto;html=1;fillColor=#dae8fc;strokeColor=#6c8ebf;" edge="1" parent="1" source="G-_GEDHwMI-fsUIYHCHh-6" target="G-_GEDHwMI-fsUIYHCHh-2">
          <mxGeometry relative="1" as="geometry" />
        </mxCell>
        <mxCell id="G-_GEDHwMI-fsUIYHCHh-19" value="Forward logs via Agent" style="edgeLabel;html=1;align=center;verticalAlign=middle;resizable=0;points=[];" vertex="1" connectable="0" parent="G-_GEDHwMI-fsUIYHCHh-17">
          <mxGeometry x="-0.2645" y="3" relative="1" as="geometry">
            <mxPoint as="offset" />
          </mxGeometry>
        </mxCell>
        <mxCell id="G-_GEDHwMI-fsUIYHCHh-6" value="Ubuntu SSH" style="outlineConnect=0;dashed=0;verticalLabelPosition=bottom;verticalAlign=top;align=center;html=1;shape=mxgraph.aws3.traditional_server;fillColor=#7D7C7C;gradientColor=none;" vertex="1" parent="1">
          <mxGeometry x="90" y="460" width="46.5" height="63" as="geometry" />
        </mxCell>
        <mxCell id="G-_GEDHwMI-fsUIYHCHh-18" style="rounded=0;orthogonalLoop=1;jettySize=auto;html=1;fillColor=#dae8fc;strokeColor=#6c8ebf;dashed=1;dashPattern=1 2;" edge="1" parent="1" source="G-_GEDHwMI-fsUIYHCHh-7" target="G-_GEDHwMI-fsUIYHCHh-2">
          <mxGeometry relative="1" as="geometry" />
        </mxCell>
        <mxCell id="G-_GEDHwMI-fsUIYHCHh-20" value="Forward logs via Agent" style="edgeLabel;html=1;align=center;verticalAlign=middle;resizable=0;points=[];" vertex="1" connectable="0" parent="G-_GEDHwMI-fsUIYHCHh-18">
          <mxGeometry x="-0.2193" y="-1" relative="1" as="geometry">
            <mxPoint y="1" as="offset" />
          </mxGeometry>
        </mxCell>
        <mxCell id="G-_GEDHwMI-fsUIYHCHh-7" value="Windows RDP&amp;nbsp;" style="outlineConnect=0;dashed=0;verticalLabelPosition=bottom;verticalAlign=top;align=center;html=1;shape=mxgraph.aws3.traditional_server;fillColor=#7D7C7C;gradientColor=none;" vertex="1" parent="1">
          <mxGeometry x="560" y="460" width="46.5" height="63" as="geometry" />
        </mxCell>
        <mxCell id="G-_GEDHwMI-fsUIYHCHh-10" style="edgeStyle=orthogonalEdgeStyle;rounded=0;orthogonalLoop=1;jettySize=auto;html=1;entryX=1;entryY=0.5;entryDx=0;entryDy=0;entryPerimeter=0;" edge="1" parent="1" source="G-_GEDHwMI-fsUIYHCHh-7" target="G-_GEDHwMI-fsUIYHCHh-5">
          <mxGeometry relative="1" as="geometry" />
        </mxCell>
        <mxCell id="G-_GEDHwMI-fsUIYHCHh-12" value="Managed" style="edgeLabel;html=1;align=center;verticalAlign=middle;resizable=0;points=[];" vertex="1" connectable="0" parent="G-_GEDHwMI-fsUIYHCHh-10">
          <mxGeometry x="0.0555" y="1" relative="1" as="geometry">
            <mxPoint as="offset" />
          </mxGeometry>
        </mxCell>
        <mxCell id="G-_GEDHwMI-fsUIYHCHh-21" value="PRIVATE NETWORK&amp;nbsp;&lt;span style=&quot;background-color: initial;&quot;&gt;172.31.0.0/24&lt;/span&gt;&lt;div&gt;IP Range :&amp;nbsp; &amp;nbsp; &amp;nbsp; &amp;nbsp; &amp;nbsp; &amp;nbsp; &amp;nbsp; &amp;nbsp; &amp;nbsp;172.31.0.1-254&lt;/div&gt;&lt;div&gt;Subnet Mask&amp;nbsp; &amp;nbsp; &amp;nbsp; &amp;nbsp; &amp;nbsp; &amp;nbsp; 255.255.255.0&lt;/div&gt;" style="text;html=1;align=left;verticalAlign=middle;whiteSpace=wrap;rounded=0;" vertex="1" parent="1">
          <mxGeometry x="40" y="160" width="210" height="100" as="geometry" />
        </mxCell>
        <mxCell id="G-_GEDHwMI-fsUIYHCHh-22" value="" style="outlineConnect=0;dashed=0;verticalLabelPosition=bottom;verticalAlign=top;align=center;html=1;shape=mxgraph.aws3.internet_gateway;fillColor=#F58534;gradientColor=none;" vertex="1" parent="1">
          <mxGeometry x="310" y="10" width="69" height="72" as="geometry" />
        </mxCell>
        <mxCell id="G-_GEDHwMI-fsUIYHCHh-25" value="INTERNET" style="ellipse;shape=cloud;whiteSpace=wrap;html=1;" vertex="1" parent="1">
          <mxGeometry x="390" y="-180" width="120" height="80" as="geometry" />
        </mxCell>
        <mxCell id="G-_GEDHwMI-fsUIYHCHh-26" style="rounded=0;orthogonalLoop=1;jettySize=auto;html=1;edgeStyle=orthogonalEdgeStyle;" edge="1" parent="1" source="G-_GEDHwMI-fsUIYHCHh-25" target="G-_GEDHwMI-fsUIYHCHh-22">
          <mxGeometry relative="1" as="geometry" />
        </mxCell>
        <mxCell id="G-_GEDHwMI-fsUIYHCHh-31" style="rounded=0;orthogonalLoop=1;jettySize=auto;html=1;entryX=0.477;entryY=0.002;entryDx=0;entryDy=0;entryPerimeter=0;" edge="1" parent="1" source="G-_GEDHwMI-fsUIYHCHh-22" target="G-_GEDHwMI-fsUIYHCHh-9">
          <mxGeometry relative="1" as="geometry" />
        </mxCell>
        <mxCell id="G-_GEDHwMI-fsUIYHCHh-33" style="edgeStyle=orthogonalEdgeStyle;rounded=0;orthogonalLoop=1;jettySize=auto;html=1;" edge="1" parent="1" source="G-_GEDHwMI-fsUIYHCHh-32" target="G-_GEDHwMI-fsUIYHCHh-25">
          <mxGeometry relative="1" as="geometry" />
        </mxCell>
        <mxCell id="G-_GEDHwMI-fsUIYHCHh-34" value="CONNECT TO ELASTIC/KIBANA VIA WEB GUI" style="edgeLabel;html=1;align=center;verticalAlign=middle;resizable=0;points=[];" vertex="1" connectable="0" parent="G-_GEDHwMI-fsUIYHCHh-33">
          <mxGeometry x="0.2778" y="-1" relative="1" as="geometry">
            <mxPoint as="offset" />
          </mxGeometry>
        </mxCell>
        <mxCell id="G-_GEDHwMI-fsUIYHCHh-32" value="SOC ANALYST LAPTOP" style="image;html=1;image=img/lib/clip_art/computers/Laptop_128x128.png" vertex="1" parent="1">
          <mxGeometry y="-140" width="80" height="80" as="geometry" />
        </mxCell>
        <mxCell id="G-_GEDHwMI-fsUIYHCHh-36" value="&lt;span style=&quot;background-color: rgb(255, 255, 255);&quot;&gt;ATTACKER LAPTOP&lt;/span&gt;&lt;br&gt;&lt;span style=&quot;background-color: rgb(255, 255, 255);&quot;&gt;KALI LINUX&lt;/span&gt;" style="verticalLabelPosition=bottom;html=1;verticalAlign=top;align=center;strokeColor=#E61BCA;fillColor=#f8cecc;shape=mxgraph.azure.laptop;pointerEvents=1;" vertex="1" parent="1">
          <mxGeometry x="800" y="-200" width="100" height="80" as="geometry" />
        </mxCell>
        <mxCell id="G-_GEDHwMI-fsUIYHCHh-38" style="rounded=0;orthogonalLoop=1;jettySize=auto;html=1;entryX=0.933;entryY=0.45;entryDx=0;entryDy=0;entryPerimeter=0;" edge="1" parent="1" source="G-_GEDHwMI-fsUIYHCHh-36" target="G-_GEDHwMI-fsUIYHCHh-25">
          <mxGeometry relative="1" as="geometry" />
        </mxCell>
        <mxCell id="G-_GEDHwMI-fsUIYHCHh-39" style="rounded=0;orthogonalLoop=1;jettySize=auto;html=1;entryX=0.975;entryY=0.563;entryDx=0;entryDy=0;entryPerimeter=0;" edge="1" parent="1" source="G-_GEDHwMI-fsUIYHCHh-3" target="G-_GEDHwMI-fsUIYHCHh-25">
          <mxGeometry relative="1" as="geometry" />
        </mxCell>
      </root>
    </mxGraphModel>
  </diagram>
</mxfile>
